<?xml version="1.0" encoding="utf-8"?>
<svg version="1.0" width="40.000000pt" height="30.000000pt" viewBox="0 0 40.000000 30.000000" preserveAspectRatio="xMidYMid meet" xmlns="http://www.w3.org/2000/svg">
  <g transform="translate(0.000000,30.000000) scale(0.100000,-0.100000)" fill="#000000" stroke="none">
    <path d="M155 258 c-40 -46 -74 -111 -75 -141 0 -33 29 -82 59 -100 60 -35 136 -13 165 47 20 43 20 61 -3 112 -19 42 -86 124 -101 124 -5 0 -25 -19 -45 -42z m99 -42 c33 -47 41 -66 41 -103 0 -57 -36 -93 -94 -93 -72 0 -117 66 -91 134 16 42 80 128 93 123 6 -2 29 -29 51 -61z" style="fill: rgb(255, 255, 255); fill-opacity: 0.5;"/>
    <path d="M160 193 c-38 -60 -39 -104 -4 -132 15 -12 34 -21 44 -21 33 0 70 39 70 74 0 33 -51 126 -70 126 -6 0 -24 -21 -40 -47z m60 -3 c14 -27 4 -42 -23 -34 -30 9 -30 9 -17 33 14 26 26 27 40 1z m3 -55 c35 -2 41 -9 33 -38 -8 -32 -50 -51 -79 -36 -29 16 -37 28 -37 63 0 26 2 28 28 20 15 -4 39 -8 55 -9z" style="fill: rgb(255, 255, 255); fill-opacity: 0.5;"/>
  </g>
</svg>