<?xml version="1.0" encoding="utf-8"?>
<svg version="1.0" width="40.000000pt" height="30.000000pt" viewBox="0 0 40.000000 30.000000" preserveAspectRatio="xMidYMid meet" xmlns="http://www.w3.org/2000/svg">
  <g transform="translate(0.000000,30.000000) scale(0.100000,-0.100000)" fill="#000000" stroke="none">
    <path d="M 262 243 C 245 220 240 218 226 229 C 213 240 207 240 195 230 C 187 223 180 211 180 202 C 180 194 153 159 120 124 C 73 75 60 55 60 31 C 60 14 65 0 70 0 C 76 0 80 14 80 31 C 80 55 93 75 140 124 C 173 159 203.813 195.464 201.02 204.02 C 196.428 218.088 202.092 230.192 212.632 225.061 C 216.553 223.153 222.223 212.338 229 208 C 244 199 257.633 195.409 270.633 208.409 C 279.633 216.409 280 233 280 239 C 280 250 312 254 322 244 C 332 235 324.632 206.123 310.632 206.123 C 292.632 206.123 263.449 165.041 277.449 157.041 C 282.449 154.041 290.616 142.965 293.571 135.531 C 298.163 123.98 285 122 279 126 C 273 129 241 106 206 72 C 173 39 138 10 130 7 C 120 3 123 1 137 1 C 151 0 176 18 207 51 C 234 80 266 104 283 107 C 309 112 311 116 306 146 C 300 173 303 180 320 185 C 337 190 341 198 338 228 C 335 260 331 265 309 268 C 289 270 277 264 262 243 Z" style="fill: rgb(255, 255, 255); fill-opacity: 0.5;"/>
  </g>
</svg>