<?xml version="1.0" encoding="utf-8"?>
<svg version="1.0" width="40.000000pt" height="30.000000pt" viewBox="0 0 40.000000 30.000000" preserveAspectRatio="xMidYMid meet" xmlns="http://www.w3.org/2000/svg">
  <g transform="translate(0.000000,30.000000) scale(0.100000,-0.100000)" fill="#000000" stroke="none">
    <path d="M 170 272 C 146 265 110 228 110 210 C 110 201 99 183 85 170 C 53 140 50 70 80 40 C 106 14 146 5 177 19 C 195 27 206 28 214 20 C 239 -5 309 22 328 65 C 346 105 343 126 312 162 C 296 180 280 207 276 222 C 267 260 213 285 170 272 Z M 240 242 C 267 220 270 166 245 141 C 231 127 228 127 220 140 C 207 159 208 170 220 170 C 238 170 230 209 210 220 C 195 228 186 226 170 210 C 145 185 130 184 130 209 C 130 233 166 260 196 260 C 208 260 228 252 240 242 Z M 210 189 C 209.288 184.051 197.458 180.466 189.899 182.551 C 182.223 184.668 175.889 196.647 186 203 C 199.415 211.429 211.832 201.738 210 189 Z M 187 155 C 199 147 210 128 212 113 C 216 82 240 64 265 74 C 279 79 281 88 276 120 C 272 147 273 160 281 160 C 298 160 319 128 320 102 C 320 74 278 30 252 30 C 223 30 180 68 180 95 C 180 124 157 143 130 135 C 114 130 110 121 112 102 C 114 81 122 74 145 70 C 163 67 175 59 175 50 C 175 28 127 26 102 47 C 32 106 112 207 187 155 Z M 159.02 108.122 C 161.02 101.122 155 90 146 90 C 137 90 130 97 130 106 C 130 123 153.02 126.122 159.02 108.122 Z M 257 93 C 254 90 249.571 87.429 243.571 91.429 C 234.571 97.429 232.531 107.551 242.531 113.551 C 256.531 121.551 268 104 257 93 Z" style="fill: rgb(255, 255, 255); fill-opacity: 0.5;"/>
  </g>
</svg>