<?xml version="1.0" encoding="utf-8"?>
<svg version="1.0" width="40.000000pt" height="30.000000pt" viewBox="0 0 40.000000 30.000000" preserveAspectRatio="xMidYMid meet" xmlns="http://www.w3.org/2000/svg">
  <g transform="translate(0.000000,30.000000) scale(0.100000,-0.100000)" fill="#000000" stroke="none">
    <path d="M120 273 c-39 -7 -43 -17 -43 -93 1 -81 14 -107 73 -146 48 -32 70 -28 125 19 39 34 40 37 45 112 3 49 1 83 -6 93 -11 15 -136 25 -194 15z m159 -19 c31 -6 31 -7 31 -72 0 -65 -1 -66 -45 -109 -25 -24 -54 -43 -65 -43 -11 0 -40 19 -65 43 -44 43 -45 44 -45 110 0 60 2 66 23 70 36 7 132 7 166 1z" style="fill: rgb(255, 255, 255); fill-opacity: 0.5;"/>
    <path d="M 120 177 C 120 120 129 102 173 75 L 200 58 L 200 144 L 200 230 L 160 230 L 120 230 L 120 177 Z M 175.51 97.939 C 162.51 85.939 130.661 143.007 130 175 C 129.423 202.923 127.853 211.58 153 212 C 180.851 212.466 176.87 212.169 178 161 C 178.642 131.938 178.51 101.939 175.51 97.939 Z" style="fill: rgb(255, 255, 255); fill-opacity: 0.5;"/>
  </g>
</svg>