<?xml version="1.0" encoding="utf-8"?>
<svg version="1.0" width="40.000000pt" height="30.000000pt" viewBox="0 0 40.000000 30.000000" preserveAspectRatio="xMidYMid meet" xmlns="http://www.w3.org/2000/svg">
  <g transform="translate(0.000000,30.000000) scale(0.100000,-0.100000)" fill="#000000" stroke="none">
    <path d="M 151 261 C 139 249 122.02 238.183 108.02 246.49 C 90.102 257.123 80 246 64 205 C 44 151 52 128 94 120 C 109 117 126 104 133 90 C 149 58 191 43 227 56 C 242 61 260 77 267 90 C 274 104 291 117 306 120 C 348 128 356 151 336 205 C 320 246 315 251 293 247 C 277 244 261 249 249 261 C 238 272 218.531 284.592 201.531 284.592 C 185.531 284.592 162 272 151 261 Z M 230 250 C 254 226 254 221 234 192 C 219 171 220 170 254 170 C 287 170 290 172 290 200 C 290 237 303 239 318 205 C 339 159 333 142 295 134 C 271 130 256 120 247 101 C 237 80 228 75 200 75 C 172 75 163 80 153 101 C 144 120 129 130 104 135 C 69 141 68 142 75 178 C 78 198 88 222 96 230 C 108 242 110 239 110 207 C 110 171 111 170 146 170 C 180 170 181 171 166 192 C 157 204 150 218 150 222 C 150 233 188 270 200 270 C 206 270 219 261 230 250 Z" style="fill: rgb(255, 255, 255); fill-opacity: 0.5;"/>
  </g>
</svg>